<?xml version="1.0" encoding="UTF-8" standalone="no"?>
<!-- Created with Inkscape (http://www.inkscape.org/) -->

<svg
   xmlns:dc="http://purl.org/dc/elements/1.1/"
   xmlns:cc="http://creativecommons.org/ns#"
   xmlns:rdf="http://www.w3.org/1999/02/22-rdf-syntax-ns#"
   xmlns:svg="http://www.w3.org/2000/svg"
   xmlns="http://www.w3.org/2000/svg"
   xmlns:sodipodi="http://sodipodi.sourceforge.net/DTD/sodipodi-0.dtd"
   xmlns:inkscape="http://www.inkscape.org/namespaces/inkscape"
   width="744.09448819"
   height="1052.3622047"
   id="svg3071"
   version="1.1"
   inkscape:version="0.48.1 "
   sodipodi:docname="testShape.svg">
  <defs
     id="defs3073">
    <inkscape:perspective
       sodipodi:type="inkscape:persp3d"
       inkscape:vp_x="0 : 526.18109 : 1"
       inkscape:vp_y="0 : 1000 : 0"
       inkscape:vp_z="1125.5231 : 354.75252 : 1"
       inkscape:persp3d-origin="372.04724 : 350.78739 : 1"
       id="perspective3875" />
  </defs>
  <sodipodi:namedview
     id="base"
     pagecolor="#ffffff"
     bordercolor="#666666"
     borderopacity="1.0"
     inkscape:pageopacity="0.0"
     inkscape:pageshadow="2"
     inkscape:zoom="0.7"
     inkscape:cx="82.385164"
     inkscape:cy="844.96612"
     inkscape:document-units="px"
     inkscape:current-layer="layer1"
     showgrid="false"
     inkscape:window-width="1280"
     inkscape:window-height="738"
     inkscape:window-x="-8"
     inkscape:window-y="-8"
     inkscape:window-maximized="1"
     showguides="false"
     inkscape:snap-global="true">
    <inkscape:grid
       type="xygrid"
       id="grid3907" />
  </sodipodi:namedview>
  <metadata
     id="metadata3076">
    <rdf:RDF>
      <cc:Work
         rdf:about="">
        <dc:format>image/svg+xml</dc:format>
        <dc:type
           rdf:resource="http://purl.org/dc/dcmitype/StillImage" />
      </cc:Work>
    </rdf:RDF>
  </metadata>
  <g
     inkscape:label="Layer 1"
     inkscape:groupmode="layer"
     id="layer1">
    <rect
       style="fill:#0000ff;fill-rule:evenodd;stroke:#000000;stroke-width:1px;stroke-linecap:butt;stroke-linejoin:miter;stroke-opacity:1"
       id="rect3081"
       width="188.57143"
       height="188.57143"
       x="-94.285713"
       y="958.07648" />
    <text
       xml:space="preserve"
       style="font-size:40px;font-style:normal;font-weight:normal;line-height:125%;letter-spacing:0px;word-spacing:0px;fill:#000000;fill-opacity:1;stroke:none;font-family:Sans"
       x="-34.857143"
       y="1063.7908"
       id="text3083"
       sodipodi:linespacing="125%"><tspan
         sodipodi:role="line"
         id="tspan3085"
         x="-34.857143"
         y="1063.7908"
         style="fill:#ffffff;fill-opacity:1">0, 0</tspan></text>
    <path
       sodipodi:type="star"
       style="fill:#0000ff;fill-opacity:1"
       id="path3869"
       sodipodi:sides="5"
       sodipodi:cx="745.71429"
       sodipodi:cy="-1.9235322"
       sodipodi:r1="153.49666"
       sodipodi:r2="76.748329"
       sodipodi:arg1="0.78539816"
       sodipodi:arg2="1.4137167"
       inkscape:flatsided="true"
       inkscape:rounded="0"
       inkscape:randomized="0"
       d="M 854.25282,106.615 676.02827,134.84299 594.10743,-25.935699 721.70213,-153.53039 882.48082,-71.609557 z"
       inkscape:transform-center-x="7.4201679"
       inkscape:transform-center-y="-7.4201679" />
    <text
       xml:space="preserve"
       style="font-size:40px;font-style:normal;font-weight:normal;line-height:125%;letter-spacing:0px;word-spacing:0px;fill:#000000;fill-opacity:1;stroke:none;font-family:Sans"
       x="661.42859"
       y="5.2193246"
       id="text3871"
       sodipodi:linespacing="125%"><tspan
         sodipodi:role="line"
         id="tspan3873"
         x="661.42859"
         y="5.2193246">768, 1024</tspan></text>
    <g
       sodipodi:type="inkscape:box3d"
       style="fill:#0000ff;fill-opacity:1"
       id="g3877"
       inkscape:perspectiveID="#perspective3875"
       inkscape:corner0="-0.50108609 : -0.0088091034 : -0.078649863 : 1"
       inkscape:corner7="-0.56892891 : -0.056843074 : 0 : 1">
      <path
         sodipodi:type="inkscape:box3dside"
         id="path3887"
         style="fill:#afafde;fill-rule:evenodd;stroke:none"
         inkscape:box3dsidetype="13"
         d="m 674.6354,1046.6966 129.87063,100.2018 58.57027,-81.9737 -117.36199,-73.25894 z" />
      <path
         sodipodi:type="inkscape:box3dside"
         id="path3879"
         style="fill:#353564;fill-rule:evenodd;stroke:none"
         inkscape:box3dsidetype="6"
         d="m 674.6354,932.40183 0,114.29477 71.07891,-55.03084 0,-96.27708 z" />
      <path
         sodipodi:type="inkscape:box3dside"
         id="path3889"
         style="fill:#e9e9ff;fill-rule:evenodd;stroke:none"
         inkscape:box3dsidetype="11"
         d="m 745.71431,895.38868 117.36199,58.10663 0,111.42939 -117.36199,-73.25894 z" />
      <path
         sodipodi:type="inkscape:box3dside"
         id="path3881"
         style="fill:#4d4d9f;fill-rule:evenodd;stroke:none"
         inkscape:box3dsidetype="5"
         d="M 674.6354,932.40183 804.50603,1010.6013 863.0763,953.49531 745.71431,895.38868 z" />
      <path
         sodipodi:type="inkscape:box3dside"
         id="path3885"
         style="fill:#d7d7ff;fill-rule:evenodd;stroke:none"
         inkscape:box3dsidetype="14"
         d="m 804.50603,1010.6013 0,136.2971 58.57027,-81.9737 0,-111.42939 z" />
      <path
         sodipodi:type="inkscape:box3dside"
         id="path3883"
         style="fill:#8686bf;fill-rule:evenodd;stroke:none"
         inkscape:box3dsidetype="3"
         d="m 674.6354,932.40183 129.87063,78.19947 0,136.2971 -129.87063,-100.2018 z" />
    </g>
    <text
       xml:space="preserve"
       style="font-size:40px;font-style:normal;font-weight:normal;line-height:125%;letter-spacing:0px;word-spacing:0px;fill:#000000;fill-opacity:1;stroke:none;font-family:Sans"
       x="1115.8762"
       y="502.05829"
       id="text3891"
       sodipodi:linespacing="125%"
       transform="matrix(0.85128583,0.52470224,-0.52470224,0.85128583,0,0)"><tspan
         sodipodi:role="line"
         id="tspan3893"
         x="1115.8762"
         y="502.05829">768, 0</tspan></text>
    <path
       style="fill:none;stroke:#000000;stroke-width:1px;stroke-linecap:butt;stroke-linejoin:miter;stroke-opacity:1"
       d="m 230,435.21933 c 13.79114,-1.7239 7.5894,-1.42858 18.57143,-1.42858 4.7619,0 9.55773,-0.56735 14.28571,0 7.23243,0.86789 14.82765,1.20529 21.42857,4.28572 40.54505,18.92102 1.39249,14.04778 45.71429,27.14286 12.53987,3.70496 25.92931,3.80342 38.57143,7.14285 12.66725,3.34607 24.71346,8.71401 37.14286,12.85715 34.83094,11.61031 70.70255,20.60186 104.28571,35.71428 8.35293,3.75882 16.1401,8.66797 24.28571,12.85714 8.52218,4.38284 17.19512,8.46848 25.71429,12.85715 13.19342,6.79661 24.04017,9.7222 31.42857,22.85714 1.92514,3.42247 2.39834,7.5287 2.85714,11.42857 0.50075,4.25636 0.21402,8.57678 0,12.85714 -0.64996,12.99936 -0.72468,22.03594 -10,32.85715 -7.46339,8.70729 -17.48127,14.87361 -25.71428,22.85714 -7.49752,7.27032 -13.34562,16.24381 -21.42857,22.85714 -7.7746,6.36103 -16.69148,11.29887 -25.71429,15.71429 -39.52016,19.33965 -46.85466,17.73164 -90,31.42857 -13.92275,4.41992 -27.16893,11.1169 -41.42857,14.28571 -11.6584,2.59076 -23.82054,1.7759 -35.71429,2.85715 -9.06024,0.82366 -18.0654,2.25198 -27.14285,2.85714 -5.2265,0.34843 -10.47619,0 -15.71429,0 -2.38095,0 -4.7619,0 -7.14286,0 -0.47619,0 -1.25171,0.44213 -1.42857,0 -2.54923,-6.37309 -1.42857,-19.71314 -1.42857,-24.28571 0,-7.61905 0,-15.2381 0,-22.85715 0,-7.61905 0,-15.23809 0,-22.85714 0,-8.09524 -1.17781,-16.27662 0,-24.28571 1.2277,-8.34833 4.79023,-16.18221 7.14286,-24.28572 1.93311,-6.6585 3.04758,-13.5999 5.71428,-20 4.56034,-10.94481 13.71051,-21.41319 22.85715,-28.57143 5.72416,-4.47978 12.19024,-7.94792 18.57143,-11.42857 3.76137,-2.05166 16.01614,-7.36866 21.42857,-8.57143 1.39455,-0.3099 2.85714,0 4.28571,0 1.56851,0 8.37527,-0.60234 10,1.42857 1.22652,1.53315 1.04352,3.78903 1.42857,5.71429 1.04412,5.22058 2.503,10.40211 2.85715,15.71429 0.60183,9.02758 0,18.09523 0,27.14285 0,10.47619 0,20.95238 0,31.42857 0,47.89308 1.64534,32.25968 -5.71429,82.85715 -2.3915,16.44155 -8.30435,55.18012 -15.71429,70 -9.69826,19.39653 -27.55718,35.39137 -44.28571,48.57143 -8.30512,6.54342 -16.20366,13.95198 -25.71429,18.57142 -7.48058,3.63343 -16.12093,4.13401 -24.28571,5.71429 -19.63308,3.79995 -20.16221,2.85714 -40,2.85714 -1.90476,0 -3.84651,0.37356 -5.71429,0 -0.66035,-0.13207 -1.23506,-0.78354 -1.42857,-1.42857 -1.26153,-4.2051 -2.47681,-8.48339 -2.85714,-12.85714 -0.57753,-6.64161 0,-13.33334 0,-20 0,-24.2981 -1.41109,-30.35914 4.28571,-54.28572 9.5572,-40.14022 8.77965,-23.74962 20,-60 3.34682,-10.8128 4.8433,-22.16981 8.57143,-32.85714 8.18743,-23.47063 17.37651,-37.49436 32.85715,-57.14286 5.21379,-6.6175 11.30364,-12.49864 17.14285,-18.57142 18.87442,-19.6294 16.28872,-17.21654 37.14286,-32.85715 3.27708,-2.4578 6.27082,-5.44778 10,-7.14285 1.73403,-0.7882 3.80952,0 5.71429,0 2.38095,0 4.7619,0 7.14285,0 0.47619,0 1.31308,-0.46198 1.42857,0 0.46198,1.84789 0,3.80952 0,5.71428 0,4.76191 0,9.52381 0,14.28572 0,8.09523 0,16.19047 0,24.28571 0,30.95238 0,61.90476 0,92.85714 0,11.63618 0.5313,39.27741 -1.42857,51.42857 -1.10403,6.84498 -4.35452,13.20121 -5.71428,20 -0.56033,2.80166 0.37761,5.73935 0,8.57143 -0.95238,4.28572 -1.90476,8.57143 -2.85715,12.85715 -0.95238,1.90476 -2.34064,3.64828 -2.85714,5.71428 -0.46197,1.84789 0,3.80952 0,5.71429 0,0.95238 0,1.90476 0,2.85714 0,0.47619 0.21296,1.00265 0,1.42857 -0.30117,0.60234 -0.82623,1.1274 -1.42857,1.42857 -0.42592,0.21296 -0.95238,0 -1.42857,0 -0.47619,0 -0.95238,0 -1.42857,0 -1.42857,0 -2.85715,0 -4.28572,0 -4.28571,0 -8.57143,0 -12.85714,0 -4.28571,0 -8.57143,0 -12.85714,0 -1.90476,0 -3.81735,0.17245 -5.71429,0 -3.35335,-0.30485 -6.64274,-1.17032 -10,-1.42857 -2.84873,-0.21913 -5.79959,0.69296 -8.57143,0 -3.099,-0.77475 -5.42565,-3.73058 -8.57143,-4.28571 -5.15839,-0.91031 -10.47619,0 -15.71428,0 -8.09524,-1.90477 -16.19048,-3.80953 -24.28572,-5.71429 -8.09523,-1.90476 -16.24629,-3.5862 -24.28571,-5.71428 -8.15717,-2.15926 -16.02094,-5.44129 -24.28571,-7.14286 -60.19761,-12.39363 12.24345,8.84305 -48.57143,-11.42857 -3.28882,-1.09628 -7.02732,-1.07353 -10,-2.85715 -2.17005,-1.30203 -5.44229,-7.00797 -5.71429,-10 -0.3449,-3.79387 0,-7.61904 0,-11.42857 0,-8.09524 0,-16.19047 0,-24.28571 0,-32.38095 0,-64.76191 0,-97.14286 0,-13.80952 -0.25569,-27.62141 0,-41.42857 0.2206,-11.91224 1.15786,-23.80308 1.42857,-35.71429 0.20558,-9.04528 -0.54733,-18.11181 0,-27.14285 0.4074,-6.72202 1.90476,-13.33334 2.85715,-20 0.95238,-6.66667 1.83313,-13.34396 2.85714,-20 0.88088,-5.72575 0.79482,-11.72927 2.85714,-17.14286 1.83366,-4.81335 6.54244,-8.12282 8.57143,-12.85714 8.18579,-19.10019 -12.04719,6.74345 4.28571,-15.71429 5.05305,-6.94793 10.46906,-8.94667 17.14286,-14.28571 7.14797,-5.71838 1.31794,-3.97569 11.42857,-8.57143 15.71429,-7.14286 2.85715,0 12.85715,-4.28572 1.9574,-0.83888 3.64828,-2.34064 5.71428,-2.85714 1.84789,-0.46197 3.80953,0 5.71429,0 1.42857,0 2.85714,0 4.28571,0"
       id="path3895"
       inkscape:connector-curvature="0" />
    <path
       sodipodi:type="spiral"
       style="fill:none;stroke:#000000;stroke-width:1px;stroke-linecap:butt;stroke-linejoin:miter;stroke-opacity:1"
       id="path3897"
       sodipodi:cx="437.14285"
       sodipodi:cy="308.07648"
       sodipodi:expansion="1"
       sodipodi:revolution="3.9689245"
       sodipodi:radius="175.87837"
       sodipodi:argument="-18.357071"
       sodipodi:t0="0"
       d="m 437.14285,308.07648 c 5.87336,3.15155 -1.35052,9.47203 -5.23808,9.7619 -10.53507,0.78554 -15.93661,-11.38297 -14.28573,-20.23808 2.95303,-15.83971 20.86872,-22.99416 35.23807,-18.80955 21.08761,6.14109 30.20929,30.46451 23.33337,50.23808 -9.16452,26.35505 -40.0969,37.48846 -65.23806,27.85718 -31.63759,-12.11997 -44.80014,-49.74616 -32.38101,-80.23806 15.04122,-36.92977 59.40479,-52.1305 95.23805,-36.90483 42.22826,17.94294 59.4726,69.06925 41.42865,110.23805 -20.83245,47.53102 -78.73759,66.82252 -125.23804,45.95248 -52.83677,-23.71388 -74.17791,-88.40867 -50.47629,-140.23804 26.58963,-58.14472 98.08175,-81.53729 155.23803,-55.00012 63.45431,29.4613 88.89964,107.75635 59.52393,170.23803 -32.32987,68.76516 -117.4321,96.26429 -185.23802,64.04776 -74.07699,-35.19611 -103.63074,-127.10879 -68.57157,-200.23802 38.06047,-79.38961 136.7862,-110.99863 215.23801,-73.0954 72.93057,35.2357 110.0641,120.10223 89.59494,197.93895" />
    <path
       sodipodi:type="spiral"
       style="fill:none;stroke:#000000;stroke-width:1px;stroke-linecap:butt;stroke-linejoin:miter;stroke-opacity:1"
       id="path3903"
       sodipodi:cx="607.14288"
       sodipodi:cy="362.36218"
       sodipodi:expansion="1"
       sodipodi:revolution="3.9689245"
       sodipodi:radius="178.17671"
       sodipodi:argument="-27.802984"
       sodipodi:t0="0"
       d="m 607.14288,362.36218 c -6.01625,-3.06627 1.16507,-9.62258 5.09635,-9.99941 10.65353,-1.02118 16.38497,11.18795 14.90248,20.19211 -2.65182,16.10635 -20.64441,23.73624 -35.28788,19.80554 -21.48988,-5.76846 -31.24946,-30.20894 -24.7086,-50.38364 8.71795,-26.8897 39.80919,-38.82834 65.4794,-29.61166 32.30335,11.59825 46.4405,49.42581 34.51473,80.57516 -14.44371,37.72604 -59.05153,54.0718 -95.67093,39.41779 -43.15469,-17.26924 -61.71509,-68.6829 -44.32085,-110.76669 20.08234,-48.5874 78.31804,-69.36639 125.86245,-49.22391 54.02299,22.88716 77.0233,87.95583 54.12698,140.95821 -25.68622,59.46067 -97.59556,84.68428 -156.05398,59.03004 -64.89992,-28.48107 -92.34831,-107.23676 -63.9331,-171.14974 31.27279,-70.34038 116.8791,-100.01469 186.2455,-68.83616 75.7818,34.06209 107.68291,126.52232 73.73923,201.34126 -36.8495,81.22397 -136.16627,115.35261 -216.43703,78.64229 -74.6215,-34.12674 -114.04887,-119.28806 -94.98334,-198.56256" />
    <rect
       style="fill:#0000ff;fill-opacity:1"
       id="rect3905"
       width="155.71428"
       height="144.28572"
       x="0"
       y="0" />
  </g>
</svg>
